<?xml version="1.0" encoding="UTF-8"?>
<svg width="195px" height="95px" viewBox="0 0 347 177" version="1.1" xmlns="http://www.w3.org/2000/svg" xmlns:xlink="http://www.w3.org/1999/xlink">
    <!-- Generator: Sketch 43.2 (39069) - http://www.bohemiancoding.com/sketch -->
    <title>RCM_logo_ALL WHITE_tag_R</title>
    <desc>Created with Sketch.</desc>
    <defs></defs>
    <g id="Page-1" stroke="none" stroke-width="1" fill="none" fill-rule="evenodd">
        <g id="RCM_logo_ALL-WHITE_tag_R" fill-rule="nonzero" fill="#FFFFFF">
            <path d="M324.41,118.66 C325.460273,118.668732 326.491641,118.940325 327.41,119.45 C328.373922,119.965154 329.166373,120.750654 329.69,121.71 C330.77351,123.59899 330.77351,125.92101 329.69,127.81 C329.167161,128.763108 328.383108,129.547161 327.43,130.07 C325.546119,131.145878 323.233881,131.145878 321.35,130.07 C320.396216,129.548061 319.611939,128.763784 319.09,127.81 C318.002398,125.922102 318.002398,123.597898 319.09,121.71 C319.61771,120.750301 320.413426,119.96501 321.38,119.45 C322.307419,118.935863 323.34961,118.664136 324.41,118.66 L324.41,118.66 Z M324.41,119.66 C323.534619,119.667716 322.675119,119.894624 321.91,120.32 C321.103321,120.751174 320.439641,121.407904 320,122.21 C319.0884,123.780644 319.0884,125.719356 320,127.29 C320.436106,128.08792 321.09208,128.743894 321.89,129.18 C323.459214,130.083611 325.390786,130.083611 326.96,129.18 C327.75629,128.745111 328.409341,128.088586 328.84,127.29 C329.749522,125.718797 329.749522,123.781203 328.84,122.21 C328.404445,121.408257 327.74403,120.751318 326.94,120.32 C326.164419,119.89485 325.294464,119.671344 324.41,119.67 L324.41,119.66 Z" id="Shape"></path>
            <path d="M321.96,127.78 L321.96,121.72 L324.64,121.72 C325.056886,121.702253 325.473556,121.759841 325.87,121.89 C326.153069,122.001058 326.389535,122.205761 326.54,122.47 C326.708053,122.74344 326.794768,123.059081 326.79,123.38 C326.800791,123.779929 326.653473,124.167986 326.38,124.46 C326.026241,124.788004 325.571191,124.985546 325.09,125.02 C325.264012,125.095605 325.425788,125.196715 325.57,125.32 C325.826897,125.556659 326.052099,125.825557 326.24,126.12 L327.29,127.77 L326.29,127.77 L325.49,126.51 C325.31068,126.223801 325.117103,125.946785 324.91,125.68 C324.797227,125.521364 324.658636,125.382773 324.5,125.27 C324.386853,125.195662 324.261661,125.141525 324.13,125.11 C323.983618,125.097068 323.836382,125.097068 323.69,125.11 L322.76,125.11 L322.76,127.8 L321.96,127.78 Z M322.76,124.4 L324.48,124.4 C324.771493,124.410888 325.062621,124.370265 325.34,124.28 C325.532053,124.215063 325.697278,124.088507 325.81,123.92 C325.913967,123.759046 325.969503,123.571612 325.97,123.38 C325.980497,123.108414 325.866323,122.846918 325.66,122.67 C325.372666,122.456411 325.01647,122.356676 324.66,122.39 L322.74,122.39 L322.76,124.4 Z" id="Shape"></path>
            <polygon id="Shape" points="6.76 165.8 3.07 165.8 3.07 164.3 12.15 164.3 12.15 165.8 8.46 165.8 8.46 176.17 6.76 176.17"></polygon>
            <path d="M14.21,164.27 L15.8,162.74 L15.8,168.74 L15.8,168.74 C16.4078738,167.796995 17.4689318,167.245549 18.59,167.29 C20.83,167.29 21.84,168.69 21.84,171.01 L21.84,176.16 L20.24,176.16 L20.24,171.67 C20.24,169.67 19.8,168.67 18.4,168.58 C16.58,168.58 15.76,170.04 15.76,172.15 L15.76,176.15 L14.17,176.15 L14.21,164.27 Z" id="Shape"></path>
            <path d="M31.75,175.81 C30.8874404,176.191145 29.9529385,176.382138 29.01,176.37 C25.93,176.37 24.52,174.5 24.52,171.68 C24.52,169.11 26.13,167.3 28.58,167.3 C31.47,167.3 32.41,169.41 32.41,172.2 L26.22,172.2 C26.2065041,172.965321 26.5025084,173.703688 27.0409253,174.247752 C27.5793421,174.791817 28.3145794,175.095509 29.08,175.09 C29.9552509,175.062826 30.7992128,174.758159 31.49,174.22 L31.75,175.81 Z M30.75,171 C30.8118866,170.387293 30.6129435,169.776843 30.2019255,169.318253 C29.7909075,168.859664 29.2058018,168.595318 28.59,168.59 C27.2880392,168.627976 26.2540191,169.697499 26.26,171 L30.75,171 Z" id="Shape"></path>
            <path d="M40.34,168.8 L38.34,168.8 L38.51,167.51 L40.38,167.51 L40.38,166.71 C40.38,164.6 40.92,163.22 43.29,163.22 C43.6488013,163.224013 44.0066685,163.257459 44.36,163.32 L44.36,164.61 C44.0995264,164.538386 43.8300871,164.504706 43.56,164.51 C42.18,164.51 42.01,165.39 42.01,166.57 L42.01,167.5 L44.47,167.5 L44.3,168.79 L41.96,168.79 L41.96,176.17 L40.36,176.17 L40.34,168.8 Z" id="Shape"></path>
            <path d="M47.43,163.77 C47.9270563,163.77 48.33,164.172944 48.33,164.67 C48.33,165.167056 47.9270563,165.57 47.43,165.57 C46.9329437,165.57 46.53,165.167056 46.53,164.67 C46.5152359,164.427079 46.6053057,164.189482 46.7773937,164.017394 C46.9494816,163.845306 47.1870791,163.755236 47.43,163.77 L47.43,163.77 Z M46.63,167.34 L48.23,167.34 L48.23,176.18 L46.63,176.18 L46.63,167.34 Z" id="Shape"></path>
            <path d="M51.66,167.5 L53.2,167.5 L53.2,168.88 L53.2,168.88 C53.7776453,167.864623 54.8726618,167.255423 56.04,167.3 C58.28,167.3 59.29,168.7 59.29,171.02 L59.29,176.17 L57.69,176.17 L57.69,171.68 C57.69,169.68 57.25,168.68 55.86,168.59 C54.04,168.59 53.23,170.05 53.23,172.16 L53.23,176.16 L51.66,176.16 L51.66,167.5 Z" id="Shape"></path>
            <path d="M69.2,175.81 C68.3374404,176.191145 67.4029385,176.382138 66.46,176.37 C63.38,176.37 61.98,174.5 61.98,171.68 C61.98,169.11 63.6,167.3 66.04,167.3 C68.93,167.3 69.87,169.41 69.87,172.2 L63.68,172.2 C63.6665041,172.965321 63.9625084,173.703688 64.5009253,174.247752 C65.0393421,174.791817 65.7745794,175.095509 66.54,175.09 C67.4149889,175.061457 68.2585401,174.756939 68.95,174.22 L69.2,175.81 Z M68.2,171 C68.2635249,170.373296 68.0541178,169.749585 67.625271,169.288192 C67.1964243,168.826799 66.5896695,168.572407 65.96,168.59 C64.6580392,168.627976 63.6240191,169.697499 63.63,171 L68.2,171 Z" id="Shape"></path>
            <path d="M72.04,174.48 C72.5828577,174.839046 73.2104165,175.049382 73.86,175.09 C74.59,175.09 75.49,174.79 75.49,173.85 C75.49,172.26 71.73,172.4 71.73,169.97 C71.73,168.17 73.08,167.3 74.79,167.3 C75.4700741,167.311006 76.1444932,167.425657 76.79,167.64 L76.49,169.04 C76.0234068,168.786698 75.5091356,168.633438 74.98,168.59 C74.16,168.59 73.45,168.93 73.45,169.65 C73.45,171.41 77.21,170.9 77.21,173.65 C77.2084308,174.419149 76.8812945,175.151677 76.3095897,175.666211 C75.7378849,176.180745 74.9750638,176.429179 74.21,176.35 C73.3892791,176.387971 72.5718474,176.22311 71.83,175.87 L72.04,174.48 Z" id="Shape"></path>
            <path d="M84.25,168.8 L81.96,168.8 L81.96,173.54 C81.9083163,173.929907 82.0267054,174.32322 82.2850287,174.619814 C82.5433521,174.916407 82.9166894,175.087669 83.31,175.09 C83.6946238,175.096908 84.0730791,174.992746 84.4,174.79 L84.57,176.15 C84.0717458,176.292322 83.5579009,176.372925 83.04,176.39 C81.39,176.39 80.37,175.61 80.37,173.87 L80.37,168.81 L78.37,168.81 L78.37,167.52 L80.37,167.52 L80.37,166.19 L81.96,164.66 L81.96,167.51 L84.25,167.51 L84.25,168.8 Z" id="Shape"></path>
            <path d="M91.96,163.77 C92.4570563,163.77 92.86,164.172944 92.86,164.67 C92.86,165.167056 92.4570563,165.57 91.96,165.57 C91.4629437,165.57 91.06,165.167056 91.06,164.67 C91.0418637,164.426196 91.1308439,164.186588 91.3037157,164.013716 C91.4765876,163.840844 91.716196,163.751864 91.96,163.77 L91.96,163.77 Z M91.16,167.34 L92.75,167.34 L92.75,176.18 L91.16,176.18 L91.16,167.34 Z" id="Shape"></path>
            <path d="M96.24,167.5 L97.79,167.5 L97.79,168.88 L97.79,168.88 C98.3659808,167.862944 99.462113,167.253124 100.63,167.3 C102.87,167.3 103.88,168.7 103.88,171.02 L103.88,176.17 L102.29,176.17 L102.29,171.68 C102.29,169.68 101.85,168.68 100.45,168.59 C98.63,168.59 97.81,170.05 97.81,172.16 L97.81,176.16 L96.21,176.16 L96.24,167.5 Z" id="Shape"></path>
            <path d="M106.66,174.48 C107.202858,174.839046 107.830416,175.049382 108.48,175.09 C109.21,175.09 110.11,174.79 110.11,173.85 C110.11,172.26 106.35,172.4 106.35,169.97 C106.35,168.17 107.69,167.3 109.41,167.3 C110.090002,167.311779 110.764306,167.42641 111.41,167.64 L111.1,169.04 C110.633749,168.785875 110.1193,168.632562 109.59,168.59 C108.78,168.59 108.06,168.93 108.06,169.65 C108.06,171.41 111.81,170.9 111.81,173.65 C111.808431,174.419149 111.481295,175.151677 110.90959,175.666211 C110.337885,176.180745 109.575064,176.429179 108.81,176.35 C107.989279,176.387971 107.171847,176.22311 106.43,175.87 L106.66,174.48 Z" id="Shape"></path>
            <path d="M118.86,168.8 L116.57,168.8 L116.57,173.54 C116.517288,173.936884 116.640826,174.336965 116.908127,174.635034 C117.175428,174.933104 117.55974,175.09933 117.96,175.09 C118.341236,175.094987 118.715954,174.990898 119.04,174.79 L119.21,176.15 C118.711856,176.29282 118.197949,176.373433 117.68,176.39 C116.03,176.39 115.01,175.61 115.01,173.87 L115.01,168.81 L113.01,168.81 L113.01,167.52 L115.01,167.52 L115.01,166.19 L116.61,164.66 L116.61,167.51 L118.9,167.51 L118.86,168.8 Z" id="Shape"></path>
            <path d="M121.38,167.5 L122.87,167.5 L122.87,168.84 L122.87,168.84 C123.275179,167.942175 124.146496,167.34459 125.13,167.29 C125.486867,167.287351 125.842757,167.32764 126.19,167.41 L126.19,168.84 C125.905616,168.733691 125.603519,168.682776 125.3,168.69 C123.87,168.69 122.94,170.05 122.94,172.22 L122.94,176.16 L121.35,176.16 L121.38,167.5 Z" id="Shape"></path>
            <path d="M136.17,176.17 L134.63,176.17 L134.63,174.79 L134.63,174.79 C134.055699,175.808748 132.958438,176.419196 131.79,176.37 C129.54,176.37 128.54,174.98 128.54,172.65 L128.54,167.5 L130.14,167.5 L130.14,171.99 C130.14,173.99 130.58,174.99 131.98,175.08 C133.8,175.08 134.61,173.62 134.61,171.51 L134.61,167.51 L136.21,167.51 L136.17,176.17 Z" id="Shape"></path>
            <path d="M139.38,167.5 L140.87,167.5 L140.87,168.76 L140.87,168.76 C141.432585,167.788052 142.499722,167.221499 143.62,167.3 C144.714944,167.276136 145.703784,167.951442 146.08,168.98 C146.598976,167.967454 147.632415,167.322035 148.77,167.3 C150.98,167.3 151.77,168.73 151.77,170.61 L151.77,176.17 L150.17,176.17 L150.17,171 C150.17,169.93 149.92,168.59 148.63,168.59 C147,168.59 146.35,170.19 146.35,171.8 L146.35,176.17 L144.75,176.17 L144.75,171 C144.75,169.93 144.5,168.59 143.2,168.59 C141.57,168.59 140.92,170.19 140.92,171.8 L140.92,176.17 L139.32,176.17 L139.38,167.5 Z" id="Shape"></path>
            <path d="M161.67,175.81 C160.807632,176.191746 159.872998,176.382766 158.93,176.37 C155.85,176.37 154.44,174.5 154.44,171.68 C154.44,169.11 156.06,167.3 158.51,167.3 C161.4,167.3 162.33,169.41 162.33,172.2 L156.15,172.2 C156.136635,172.956666 156.425824,173.687373 156.953389,174.229957 C157.480954,174.772542 158.203257,175.082124 158.96,175.09 C159.838177,175.062188 160.685132,174.757705 161.38,174.22 L161.67,175.81 Z M160.67,171 C160.731887,170.387293 160.532944,169.776843 160.121926,169.318253 C159.710908,168.859664 159.125802,168.595318 158.51,168.59 C157.208039,168.627976 156.174019,169.697499 156.18,171 L160.67,171 Z" id="Shape"></path>
            <path d="M164.96,167.5 L166.51,167.5 L166.51,168.88 L166.51,168.88 C167.085981,167.862944 168.182113,167.253124 169.35,167.3 C171.59,167.3 172.6,168.7 172.6,171.02 L172.6,176.17 L171.06,176.17 L171.06,171.68 C171.06,169.68 170.62,168.68 169.23,168.59 C167.41,168.59 166.59,170.05 166.59,172.16 L166.59,176.16 L164.96,176.16 L164.96,167.5 Z" id="Shape"></path>
            <path d="M180.49,168.8 L178.2,168.8 L178.2,173.54 C178.148516,173.928194 178.265609,174.319864 178.521711,174.616101 C178.777814,174.912339 179.148441,175.084824 179.54,175.09 C179.924624,175.096908 180.303079,174.992746 180.63,174.79 L180.8,176.15 C180.301789,176.29252 179.78792,176.373127 179.27,176.39 C177.62,176.39 176.6,175.61 176.6,173.87 L176.6,168.81 L174.6,168.81 L174.6,167.52 L176.6,167.52 L176.6,166.19 L178.2,164.66 L178.2,167.51 L180.49,167.51 L180.49,168.8 Z" id="Shape"></path>
            <path d="M188.75,163.77 C189.247056,163.77 189.65,164.172944 189.65,164.67 C189.65,165.167056 189.247056,165.57 188.75,165.57 C188.252944,165.57 187.85,165.167056 187.85,164.67 C187.831864,164.426196 187.920844,164.186588 188.093716,164.013716 C188.266588,163.840844 188.506196,163.751864 188.75,163.77 L188.75,163.77 Z M187.95,167.34 L189.55,167.34 L189.55,176.18 L187.96,176.18 L187.95,167.34 Z" id="Shape"></path>
            <path d="M192.5,174.48 C193.042858,174.839046 193.670416,175.049382 194.32,175.09 C195.05,175.09 195.95,174.79 195.95,173.85 C195.95,172.26 192.19,172.4 192.19,169.97 C192.19,168.17 193.53,167.3 195.25,167.3 C195.929988,167.311932 196.604268,167.426559 197.25,167.64 L196.94,169.04 C196.473634,168.786151 195.959245,168.632856 195.43,168.59 C194.62,168.59 193.9,168.93 193.9,169.65 C193.9,171.41 197.66,170.9 197.66,173.65 C197.658431,174.419149 197.331295,175.151677 196.75959,175.666211 C196.187885,176.180745 195.425064,176.429179 194.66,176.35 C193.839279,176.387971 193.021847,176.22311 192.28,175.87 L192.5,174.48 Z" id="Shape"></path>
            <path d="M208.96,168.8 L206.67,168.8 L206.67,173.54 C206.619183,173.919806 206.729754,174.303537 206.97488,174.598068 C207.220006,174.892599 207.57728,175.071008 207.96,175.09 C208.341236,175.094987 208.715954,174.990898 209.04,174.79 L209.21,176.15 C208.711811,176.29262 208.19793,176.373229 207.68,176.39 C206.03,176.39 205.01,175.61 205.01,173.87 L205.01,168.81 L203.01,168.81 L203.01,167.52 L205.01,167.52 L205.01,166.19 L206.61,164.66 L206.61,167.51 L208.96,167.51 L208.96,168.8 Z" id="Shape"></path>
            <path d="M211.46,164.27 L213.06,162.74 L213.06,168.74 L213.06,168.74 C213.669276,167.798535 214.729387,167.247581 215.85,167.29 C218.09,167.29 219.1,168.69 219.1,171.01 L219.1,176.16 L217.5,176.16 L217.5,171.67 C217.5,169.67 217.06,168.67 215.66,168.58 C213.84,168.58 213.02,170.04 213.02,172.15 L213.02,176.15 L211.42,176.15 L211.46,164.27 Z" id="Shape"></path>
            <path d="M228.96,175.81 C228.097632,176.191746 227.162998,176.382766 226.22,176.37 C223.14,176.37 221.74,174.5 221.74,171.68 C221.74,169.11 223.35,167.3 225.8,167.3 C228.69,167.3 229.63,169.41 229.63,172.2 L223.44,172.2 C223.426549,172.963578 223.721192,173.700395 224.257431,174.24416 C224.79367,174.787924 225.526309,175.092808 226.29,175.09 C227.164729,175.060103 228.007875,174.755731 228.7,174.22 L228.96,175.81 Z M227.96,171 C228.021887,170.387293 227.822944,169.776843 227.411926,169.318253 C227.000908,168.859664 226.415802,168.595318 225.8,168.59 C224.498039,168.627976 223.464019,169.697499 223.47,171 L227.96,171 Z" id="Shape"></path>
            <path d="M237.54,167.5 L239.03,167.5 L239.03,168.76 L239.03,168.76 C239.590855,167.786259 240.659206,167.219062 241.78,167.3 C242.874944,167.276136 243.863784,167.951442 244.24,168.98 C244.755604,167.969027 245.78538,167.323495 246.92,167.3 C249.13,167.3 249.92,168.73 249.92,170.61 L249.92,176.17 L248.32,176.17 L248.32,171 C248.32,169.93 248.07,168.59 246.77,168.59 C245.14,168.59 244.49,170.19 244.49,171.8 L244.49,176.17 L242.96,176.17 L242.96,171 C242.96,169.93 242.71,168.59 241.41,168.59 C239.78,168.59 239.13,170.19 239.13,171.8 L239.13,176.17 L237.54,176.17 L237.54,167.5 Z" id="Shape"></path>
            <path d="M254.18,163.77 C254.677056,163.77 255.08,164.172944 255.08,164.67 C255.08,165.167056 254.677056,165.57 254.18,165.57 C253.682944,165.57 253.28,165.167056 253.28,164.67 C253.261864,164.426196 253.350844,164.186588 253.523716,164.013716 C253.696588,163.840844 253.936196,163.751864 254.18,163.77 L254.18,163.77 Z M253.38,167.34 L254.96,167.34 L254.96,176.18 L253.36,176.18 L253.38,167.34 Z" id="Shape"></path>
            <path d="M258.42,167.5 L259.96,167.5 L259.96,168.88 L259.96,168.88 C260.535981,167.862944 261.632113,167.253124 262.8,167.3 C265.05,167.3 266.05,168.7 266.05,171.02 L266.05,176.17 L264.46,176.17 L264.46,171.68 C264.46,169.68 264.01,168.68 262.62,168.59 C260.81,168.59 259.99,170.05 259.99,172.16 L259.99,176.16 L258.4,176.16 L258.42,167.5 Z" id="Shape"></path>
            <path d="M275.45,174.95 L275.45,174.95 C274.756916,175.904218 273.627708,176.442474 272.45,176.38 C269.83,176.38 268.73,174.05 268.73,171.69 C268.73,169.33 269.96,167.31 272.47,167.31 C273.612349,167.20788 274.717284,167.746873 275.34,168.71 L275.34,168.71 L275.34,164.29 L276.94,162.76 L276.94,176.19 L275.45,174.95 Z M272.83,175.08 C274.63,175.08 275.38,173.3 275.38,171.85 C275.38,170.24 274.55,168.59 272.81,168.59 C271.07,168.59 270.4,170.22 270.43,171.8 C270.4,173.17 271.12,175.09 272.83,175.09 L272.83,175.08 Z" id="Shape"></path>
            <polygon id="Shape" points="279.24 174.27 281.14 174.27 281.14 176.17 279.24 176.17"></polygon>
            <polygon id="Shape" points="13.35 76.22 0.96 76.22 0.96 69.43 34.3 69.43 34.3 76.22 21.96 76.22 21.96 112.52 13.31 114.52"></polygon>
            <path d="M32.96,69.3 L41.23,63.13 L41.23,85.09 L41.35,85.09 C43.622256,81.8312293 47.3784955,79.9305721 51.35,80.03 C58.88,80.03 62.15,85.34 62.15,92.5 L62.15,112.57 L53.88,112.57 L53.88,95.57 C53.88,91.68 53.82,86.44 48.51,86.44 C42.51,86.44 41.23,92.92 41.23,97 L41.23,112.56 L32.96,112.56 L32.96,69.3 Z" id="Shape"></path>
            <path d="M88.43,110.73 C85.0697773,112.512435 81.3016619,113.384652 77.5,113.26 C67.01,113.26 60.89,107.21 60.89,96.78 C60.89,87.58 65.77,79.99 75.65,79.99 C87.44,79.99 90.78,88.08 90.78,99.19 L68.78,99.19 C69.15,104.31 72.78,107.19 77.86,107.19 C81.86,107.19 84.71,105.71 87.8,103.98 L88.43,110.73 Z M82.88,93.51 C82.63,89.51 80.78,86.04 76.15,86.04 C71.52,86.04 69.15,89.25 68.8,93.51 L82.88,93.51 Z" id="Shape"></path>
            <path d="M101.76,69.42 L111.08,69.42 C120.34,69.42 131.39,69.11 131.39,81.09 C131.492733,86.2334055 127.62004,90.5896397 122.5,91.09 L122.5,91.21 C124.85,91.4 127.07,95.66 127.07,95.66 L133.96,112.52 L124.36,112.52 C124.36,112.52 117.88,95.79 116.89,95.05 C115.9,94.31 114.89,94.62 113.18,94.62 L110.4,94.62 L110.4,112.53 L101.76,112.53 L101.76,69.42 Z M110.4,87.82 L113.24,87.82 C117.5,87.82 122.37,87.2 122.37,81.82 C122.37,76.63 117.56,76.2 113.24,76.2 L110.4,76.2 L110.4,87.82 Z" id="Shape"></path>
            <path d="M146.96,79.98 C156.41,79.98 163.63,86.34 163.63,96.83 C163.63,105.97 157.51,113.25 146.96,113.25 C136.41,113.25 130.35,105.97 130.35,96.83 C130.35,86.34 137.57,79.98 146.96,79.98 Z M146.96,106.83 C153.32,106.83 154.96,101.15 154.96,95.83 C154.96,90.96 152.37,86.39 146.96,86.39 C141.55,86.39 138.96,91.08 138.96,95.83 C138.96,101.09 140.66,106.84 146.96,106.84 L146.96,106.83 Z" id="Shape"></path>
            <path d="M177.14,103.94 L177.27,103.94 L184.96,80.72 L193.36,80.72 L181.44,112.27 C178.78,119.27 173.16,127.52 164.52,127.52 L164.52,121.09 C167.85,121.09 172.52,117.51 172.52,114.09 L160.36,80.69 L169.49,80.69 L177.14,103.94 Z" id="Shape"></path>
            <polygon id="Shape" points="217.96 69.3 226.23 63.13 226.23 112.52 217.96 112.52"></polygon>
            <path d="M34.88,152.9 C31.6680646,153.718955 28.3737752,154.171836 25.06,154.25 C11.06,154.25 1.41,147.25 1.41,132.71 C1.41,117.95 10.41,109.71 25.06,109.71 C28.3897474,109.731087 31.6899033,110.336962 34.81,111.5 L32.34,118.78 C29.06,116.93 27.96,116.49 24.87,116.49 C15.98,116.49 10.42,123.28 10.42,132.11 C10.42,140.94 15.85,147.48 25.05,147.48 C27.6920465,147.548014 30.3067544,146.93137 32.64,145.69 L34.88,152.9 Z" id="Shape"></path>
            <path d="M48.56,120.99 C58,120.99 65.23,127.34 65.23,137.84 C65.23,146.98 59.12,154.26 48.56,154.26 C38,154.26 31.96,146.97 31.96,137.84 C31.96,127.34 39.17,120.99 48.56,120.99 Z M48.56,147.84 C54.92,147.84 56.56,142.16 56.56,136.84 C56.56,131.97 53.97,127.39 48.56,127.39 C43.15,127.39 40.56,132.08 40.56,136.84 C40.6,142.09 42.26,147.84 48.56,147.84 Z" id="Shape"></path>
            <path d="M65.86,121.72 L73.7,121.72 L73.7,126.09 L73.83,126.09 C76.42,122.45 79.94,121.03 84.26,121.03 C91.79,121.03 95.06,126.34 95.06,133.5 L95.06,153.56 L86.79,153.56 L86.79,136.56 C86.79,132.67 86.73,127.42 81.42,127.42 C75.42,127.42 74.14,133.9 74.14,137.98 L74.14,153.53 L65.86,153.53 L65.86,121.72 Z" id="Shape"></path>
            <path d="M116.11,128.39 C113.963948,127.475607 111.652671,127.012671 109.32,127.03 C107.1,127.03 104.44,127.83 104.44,130.55 C104.44,135.61 118.83,132.4 118.83,143.89 C118.83,151.3 112.22,154.26 105.5,154.26 C102.325039,154.214782 99.1691059,153.761053 96.11,152.91 L97.22,146.12 C99.5134681,147.442081 102.103342,148.164357 104.75,148.22 C106.85,148.22 110.18,147.42 110.18,144.33 C110.18,138.1 95.79,142.33 95.79,130.87 C95.79,124.02 101.79,121 108.26,121 C111.295881,121.030305 114.317278,121.423086 117.26,122.17 L116.11,128.39 Z" id="Shape"></path>
            <path d="M144.57,151.73 C141.209941,153.512874 137.441707,154.385119 133.64,154.26 C123.15,154.26 117.03,148.26 117.03,137.78 C117.03,128.58 121.91,120.99 131.79,120.99 C143.58,120.99 146.91,129.08 146.91,140.19 L124.96,140.19 C125.33,145.31 128.91,148.19 134.03,148.19 C138.03,148.19 140.89,146.71 143.97,144.98 L144.57,151.73 Z M138.96,134.51 C138.72,130.51 136.86,127.04 132.23,127.04 C127.6,127.04 125.23,130.25 124.89,134.51 L138.96,134.51 Z" id="Shape"></path>
            <path d="M147.61,121.72 L154.96,121.72 L154.96,128.94 L155.08,128.94 C155.45,125.94 158.85,120.94 163.78,120.94 C164.630884,120.904274 165.482564,120.988432 166.31,121.19 L166.31,129.52 C165.140063,129.017693 163.872034,128.785278 162.6,128.84 C155.87,128.84 155.87,137.23 155.87,141.84 L155.87,153.51 L147.6,153.51 L147.61,121.72 Z" id="Shape"></path>
            <polygon id="Shape" points="161.74 121.72 170.63 121.72 178.54 144.87 178.67 144.87 186.33 121.72 194.6 121.72 182.87 153.52 173.55 153.52"></polygon>
            <path d="M221.76,127.77 L215.65,127.77 L216.27,121.72 L221.76,121.72 L221.76,117.83 L230.03,109.62 L230.03,121.72 L237.38,121.72 L236.76,127.77 L230.03,127.77 L230.03,142.59 C230.03,145.31 230.77,147.84 233.92,147.84 C235.269882,147.889074 236.609631,147.589439 237.81,146.97 L237.93,153.52 C235.938887,154.055973 233.881494,154.30515 231.82,154.26 C225.34,154.26 221.76,150.26 221.76,143.96 L221.76,127.77 Z" id="Shape"></path>
            <path d="M251.46,120.99 C260.9,120.99 268.13,127.34 268.13,137.84 C268.13,146.98 262.02,154.26 251.46,154.26 C240.9,154.26 234.85,146.98 234.85,137.84 C234.85,127.34 242.08,120.99 251.46,120.99 Z M251.46,147.84 C257.82,147.84 259.46,142.16 259.46,136.84 C259.46,131.97 256.87,127.39 251.46,127.39 C246.05,127.39 243.46,132.08 243.46,136.84 C243.5,142.09 245.16,147.84 251.46,147.84 Z" id="Shape"></path>
            <path d="M268.82,121.72 L276.17,121.72 L276.17,128.94 L276.29,128.94 C276.66,125.94 280.06,120.94 284.99,120.94 C287.389988,120.839219 289.791861,121.088502 292.12,121.68 L287.52,129.52 C286.353433,129.018183 285.088762,128.785757 283.82,128.84 C277.09,128.84 277.09,137.23 277.09,141.84 L277.09,153.51 L268.82,153.51 L268.82,121.72 Z" id="Shape"></path>
            <path d="M299.78,144.94 L299.96,144.94 L307.61,121.72 L315.96,121.72 L304.05,153.27 C301.39,160.27 298.05,167.27 289.41,167.27 L289.41,160.85 C290.944975,160.930158 292.442639,160.359608 293.535204,159.278463 C294.62777,158.197319 295.214025,156.705732 295.15,155.17 L282.96,121.72 L292.1,121.72 L299.78,144.94 Z" id="Shape"></path>
            <path d="M217.2,146.42 C217.13,144.07 217.07,141.67 217.07,138.42 L217.07,138.36 L217.07,137.79 L217.07,137.15 C217.035757,134.36214 216.437047,131.610117 215.31,129.06 C213.371342,124.526448 209.075665,121.444348 204.16,121.06 C203.64,121.01 203.1,120.98 202.55,120.98 L202.34,120.98 L201.75,120.98 L201.35,120.98 L200.44,120.98 L200.44,120.98 C198.67301,121.130495 196.918722,121.404498 195.19,121.8 L195.19,128.28 C196.868321,127.598107 198.636777,127.163572 200.44,126.99 C200.86,126.99 201.31,126.94 201.81,126.94 L201.81,126.94 C202.292729,126.944252 202.774314,126.987728 203.25,127.07 C203.947064,127.189516 204.62161,127.415489 205.25,127.74 C207.41,128.85 208.64,131.04 209.03,133.74 L204.96,133.74 C204.15,133.74 203.3,133.74 202.44,133.82 C200.883147,133.889927 199.334636,134.087253 197.81,134.41 C196.590574,134.666262 195.405695,135.065697 194.28,135.6 C192.283415,136.509349 190.677021,138.101559 189.75,140.09 C189.125822,141.534707 188.818914,143.096529 188.85,144.67 C188.848708,146.087643 189.191885,147.484373 189.85,148.74 C191.67,152.22 195.85,154.12 200,154.12 C200.759598,154.109178 201.516402,154.025461 202.26,153.87 C205.426212,153.309083 208.188465,151.390852 209.82,148.62 L209.96,148.62 C209.96,149.32 210.02,150.62 210.14,151.84 C210.14,152.36 210.24,152.84 210.33,153.37 L217.8,153.37 C217.57,151.09 217.26,148.83 217.2,146.42 Z M209.53,139.17 C209.64208,141.366838 209.042373,143.541213 207.82,145.37 C206.900026,146.603413 205.594172,147.493928 204.11,147.9 C203.431279,148.100656 202.727743,148.205008 202.02,148.21 L201.3,148.21 C198.7,148.03 196.78,146.84 196.78,144.36 C196.710662,142.679055 197.586841,141.10039 199.05,140.27 C200.99,139.09 203.79,138.86 205.98,138.86 L209.56,138.86 C209.54,138.95 209.52,139.09 209.52,139.17 L209.53,139.17 Z" id="Shape"></path>
            <path d="M215.96,105.42 C215.9,103.08 215.84,100.66 215.84,97.42 L215.84,97.36 L215.84,96.79 L215.84,96.15 C215.804267,93.3612572 215.202078,90.6088749 214.07,88.06 C212.134998,83.5235155 207.837272,80.4399456 202.92,80.06 C202.4,80 201.86,79.98 201.31,79.97 L201.1,79.97 L200.51,79.97 L200.12,79.97 L199.22,79.97 L199.22,79.97 C197.449451,80.1183452 195.691687,80.3923692 193.96,80.79 L193.96,87.27 C195.641232,86.5845513 197.413021,86.1466568 199.22,85.97 L200.58,85.97 L200.64,85.97 C201.122837,85.9720142 201.604609,86.0155075 202.08,86.1 C202.777537,86.2176317 203.452367,86.4437 204.08,86.77 C206.24,87.88 207.48,90.07 207.86,92.77 L203.74,92.77 C202.93,92.77 202.08,92.77 201.22,92.85 C199.663174,92.9202385 198.114689,93.1175616 196.59,93.44 C195.370819,93.697159 194.186044,94.0965593 193.06,94.63 C191.063415,95.5393491 189.457021,97.1315587 188.53,99.12 C187.900591,100.563385 187.590187,102.125634 187.62,103.7 C187.616292,105.117934 187.95961,106.515235 188.62,107.77 C190.44,111.25 194.57,113.15 198.76,113.15 C199.519625,113.139611 200.276471,113.05589 201.02,112.9 C204.186212,112.339083 206.948465,110.420852 208.58,107.65 L208.71,107.65 C208.71,108.35 208.77,109.65 208.89,110.87 C208.89,111.39 209,111.87 209.09,112.4 L216.56,112.4 C216.29,110.09 215.96,107.83 215.96,105.42 Z M208.29,98.17 C208.401362,100.36676 207.801717,102.540912 206.58,104.37 C205.659488,105.602852 204.353846,106.493223 202.87,106.9 C202.191688,107.102501 201.487887,107.206892 200.78,107.21 L200.06,107.21 C197.46,107.03 195.54,105.85 195.54,103.36 C195.470662,101.679055 196.346841,100.10039 197.81,99.27 C199.75,98.09 202.55,97.86 204.74,97.86 L208.32,97.86 C208.26,97.95 208.25,98.09 208.24,98.17 L208.29,98.17 Z" id="Shape"></path>
            <path d="M291.27,29.99 C294.41,39.46 286.82,48.61 291.59,57.99 C288.01,55.99 289.71,50.41 285.13,49.28 C285.69,42.7 291.27,36.87 288.13,30.03 C287.456843,28.9693506 286.440295,28.1716427 285.25,27.77 C283.42,27.52 282.55,30.59 280.74,28.65 C280.17703,27.9719568 280.124231,27.0053273 280.61,26.27 C282.288074,24.8777343 284.602802,24.5382408 286.61,25.39 C288.641534,26.3608785 290.279121,27.9984658 291.25,30.03 L291.27,29.99 Z" id="Shape"></path>
            <path d="M321.96,25.91 C322.681879,26.5018518 322.936833,27.4933366 322.59,28.36 C322.075973,29.0731531 321.190935,29.4177699 320.33,29.24 C319.39,28.74 318.83,27.36 317.45,27.86 C315.885163,28.5407765 314.694822,29.8698687 314.19,31.5 C313,37.64 316.57,42.5 317.45,48.17 C315.892099,48.5646122 314.286114,48.7363214 312.68,48.68 C312.18,41.09 307.17,30 316.13,25.61 C317.995969,24.6971489 320.201357,24.8144165 321.96,25.92 L321.96,25.91 Z" id="Shape"></path>
            <path d="M320.16,52.09 C313.64,55.23 305.8,51.65 298.91,53.41 C298.301674,53.7321376 297.83218,54.2656534 297.59,54.91 C305.49,51.58 317.34,58.36 324.37,51.34 C324.42,54.1 321.79,56.16 319.54,57.17 C313.02,59.74 305.24,54.61 299.66,58.68 C299.6,58.86 299.28,58.93 299.34,59.18 C306.55,56.74 314.89,60.81 322.22,57.92 C321.28,60.37 318.58,61.69 316.08,61.92 C311.08,62.86 305.79,59.23 301.47,62.67 L301.47,62.98 C305.92,61.23 310.81,63.04 315.47,63.1 C313.28,66.87 309.14,67.99 305.57,69.43 C304.758457,70.1386863 304.572926,71.3277706 305.13,72.25 C305.38,73.38 306.82,73.07 307.08,73.94 C303.26,75.26 298.87,74.69 295.17,73.94 C295.17,73.32 296.17,73.25 296.68,72.88 C297.488799,72.094866 297.669279,70.8643188 297.12,69.88 C294.62,67.88 291.35,67.81 289.03,65.37 C286.844331,63.1092442 285.325198,60.2889849 284.64,57.22 C281.88,55.22 281.44,51.83 278.18,50.64 L281.5,51.39 C281.13,50.32 279.87,49.26 279.06,48.19 C281.57,50.39 285.83,49.19 287.34,52.71 C287.869924,55.9710898 290.054408,58.7234636 293.11,59.98 C292.3,58.16 291.54,55.34 292.48,53.21 C294.86,47.57 301.82,49.45 306.34,49.21 C311.92,49.71 319.26,50.65 323.64,46.64 C323.83,48.71 322.01,50.97 320.19,52.1 L320.16,52.09 Z" id="Shape"></path>
            <path d="M304.56,20.62 C304.56,20.62 306.13,20.86 306.56,21.62 C306.56,21.62 306.93,22.27 307.07,21.51 C307.21,20.75 306.5,20.08 306.22,19.82 C305.657779,19.3673857 304.902516,19.2352145 304.22,19.47 C303.819482,19.6709455 303.37809,19.7770165 302.93,19.78 C302.93,19.78 301.86,19.95 302.41,20.66 L304.56,20.62 Z M300.42,20.62 C300.96,19.91 299.9,19.74 299.9,19.74 C299.45331,19.7040892 299.014827,19.5995278 298.6,19.43 C297.91951,19.1885005 297.162459,19.3171993 296.6,19.77 C296.32,20.03 295.6,20.69 295.75,21.46 C295.9,22.23 296.26,21.57 296.26,21.57 C296.65,20.7 298.68,20.57 298.68,20.57 L300.43,20.57 L300.42,20.62 Z M302.25,15.94 L301.89,17.04 L302.96,16.64 L302.96,18.3 L301.96,17.92 L302.58,19.08 C303.376812,18.7112333 304.242098,18.5136486 305.12,18.5 C305.92235,18.4958899 306.690296,18.8255269 307.24,19.41 C307.919866,20.156354 308.145297,21.2109121 307.83,22.17 C307.502764,22.8292909 307.241494,23.5193118 307.05,24.23 C307.05,24.23 306.76,25.14 306.35,25.33 C306.569821,25.4767605 306.709948,25.716451 306.73,25.98 L306.73,26.89 C306.741607,27.1187953 306.655788,27.3418061 306.493797,27.5037969 C306.331806,27.6657876 306.108795,27.7516073 305.88,27.74 L296.96,27.74 C296.731205,27.7516073 296.508194,27.6657876 296.346203,27.5037969 C296.184212,27.3418061 296.098393,27.1187953 296.11,26.89 L296.11,25.98 C296.131565,25.7195998 296.271698,25.4835875 296.49,25.34 C296.09,25.15 295.8,24.24 295.8,24.24 C295.603591,23.5295044 295.33903,22.8396359 295.01,22.18 C294.699017,21.2206855 294.923978,20.1683243 295.6,19.42 C296.150409,18.8365345 296.917894,18.5070949 297.72,18.51 C298.597796,18.524532 299.4629,18.7220755 300.26,19.09 L300.88,17.93 L299.88,18.31 L299.88,16.65 L300.94,17.05 L300.59,15.95 L302.25,15.94 Z" id="Shape"></path>
            <polygon id="Shape" points="296.6 47.3 297.12 47.3 297.12 30.86 296.6 30.86 296.6 47.3"></polygon>
            <polygon id="Shape" points="298.89 47.3 299.41 47.3 299.42 30.86 298.89 30.86 298.89 47.3"></polygon>
            <polygon id="Shape" points="301.18 47.3 301.7 47.3 301.7 30.86 301.18 30.86 301.18 47.3"></polygon>
            <polygon id="Shape" points="303.47 47.3 304 47.3 304 30.86 303.47 30.86 303.47 47.3"></polygon>
            <polygon id="Shape" points="305.76 47.3 306.28 47.3 306.28 30.86 305.76 30.86 305.76 47.3"></polygon>
            <path d="M278.67,38.4 L277.3,38.4 C277.24,38.4 277.3,38.21 277.3,38.21 C277.91,38.14 278.18,38.12 278.18,37.3 L278.18,34.8 C278.18,33.98 277.91,33.95 277.3,33.88 C277.3,33.88 277.24,33.68 277.3,33.7 L278.68,33.7 L279.84,33.7 C279.9,33.7 279.84,33.88 279.84,33.88 C279.19,33.94 278.96,34.03 278.96,34.8 L278.96,37.3 C278.96,38.07 279.19,38.15 279.84,38.21 L279.84,38.4 L278.68,38.4 L278.67,38.4 Z" id="Shape"></path>
            <path d="M282.12,33.09 C282.12,33.81 282.75,34.22 283.42,34.63 C283.922473,34.3567863 284.236616,33.8319382 284.24,33.26 C284.265054,32.9520849 284.160651,32.6476585 283.951897,32.4199275 C283.743144,32.1921965 283.448928,32.0617656 283.14,32.06 C282.587715,32.06 282.14,32.5077153 282.14,33.06 L282.12,33.09 Z M281.83,36.88 C281.813487,37.2288391 281.941351,37.5690846 282.183518,37.8207118 C282.425686,38.0723391 282.760784,38.2131405 283.11,38.21 C283.443169,38.2440627 283.775118,38.1349483 284.0231,37.9098564 C284.271083,37.6847646 284.411737,37.364901 284.41,37.03 C284.41,36.18 283.65,35.75 282.9,35.3 C282.242106,35.5435989 281.812016,36.178686 281.83,36.88 L281.83,36.88 Z M281.06,36.88 C281.06,36.15 281.63,35.51 282.58,35.12 C281.95,34.71 281.41,34.27 281.41,33.53 C281.417122,33.0389509 281.625683,32.5723955 281.986836,32.2396059 C282.347988,31.9068163 282.830008,31.7370254 283.32,31.77 C283.728606,31.7454202 284.130186,31.8845301 284.43603,32.1566004 C284.741875,32.4286707 284.926816,32.8113123 284.95,33.22 C284.95,33.91 284.53,34.38 283.72,34.81 C284.42,35.24 285.09,35.74 285.09,36.61 C285.06671,37.1424409 284.831873,37.643565 284.437607,38.0021594 C284.043341,38.3607539 283.522258,38.5471567 282.99,38.52 C282.515939,38.5614363 282.045025,38.411327 281.682396,38.1031863 C281.319767,37.7950455 281.09562,37.3545331 281.06,36.88 L281.06,36.88 Z" id="Shape"></path>
            <path d="M318.24,33.09 C318.24,33.81 318.87,34.22 319.54,34.63 C320.04094,34.3551917 320.354486,33.8313407 320.36,33.26 C320.385054,32.9520849 320.280651,32.6476585 320.071897,32.4199275 C319.863144,32.1921965 319.568928,32.0617656 319.26,32.06 C318.707715,32.06 318.26,32.5077153 318.26,33.06 L318.24,33.09 Z M317.94,36.88 C317.923487,37.2288391 318.051351,37.5690846 318.293518,37.8207118 C318.535686,38.0723391 318.870784,38.2131405 319.22,38.21 C319.553169,38.2440627 319.885118,38.1349483 320.1331,37.9098564 C320.381083,37.6847646 320.521737,37.364901 320.52,37.03 C320.52,36.18 319.76,35.75 319.01,35.3 C318.352106,35.5435989 317.922016,36.178686 317.94,36.88 L317.94,36.88 Z M317.17,36.88 C317.17,36.15 317.74,35.51 318.69,35.12 C318.05,34.71 317.52,34.27 317.52,33.53 C317.527122,33.0389509 317.735683,32.5723955 318.096836,32.2396059 C318.457988,31.9068163 318.940008,31.7370254 319.43,31.77 C319.837597,31.7454597 320.238093,31.8848684 320.542352,32.1571993 C320.846612,32.4295302 321.029387,32.8121851 321.05,33.22 C321.05,33.91 320.64,34.38 319.82,34.81 C320.53,35.24 321.19,35.74 321.19,36.61 C321.16671,37.1424409 320.931873,37.643565 320.537607,38.0021594 C320.143341,38.3607539 319.622258,38.5471567 319.09,38.52 C318.617583,38.558627 318.14927,38.4072376 317.788858,38.0993855 C317.428446,37.7915335 317.205704,37.3526469 317.17,36.88 L317.17,36.88 Z" id="Shape"></path>
            <path d="M324.57,38.29 C325.25,38.29 325.66,37.69 325.66,36.87 C325.66,36.05 325.25,35.49 324.54,35.49 C324.356434,35.5013564 324.178198,35.556198 324.02,35.65 C324.02,35.65 323.87,35.53 323.89,35.52 C324.179204,35.2273996 324.568898,35.055791 324.98,35.04 C325.399045,35.0396818 325.800125,35.2101416 326.090719,35.5120579 C326.381314,35.8139743 326.536327,36.2212732 326.52,36.64 C326.49671,37.1724409 326.261873,37.673565 325.867607,38.0321594 C325.473341,38.3907539 324.952258,38.5771567 324.42,38.55 C323.831004,38.5625411 323.263826,38.3270972 322.856865,37.9011197 C322.449905,37.4751422 322.240591,36.8978101 322.28,36.31 C322.28,34.71 323.66,32.69 326.7,31.79 C326.77,31.79 326.82,31.94 326.75,31.96 C324.15,32.96 323.16,34.7 323.16,36.3 C323.16,37.5 323.78,38.3 324.58,38.3 L324.57,38.29 Z" id="Shape"></path>
            <path d="M301.77,10.77 C302.437451,10.8080172 303.087242,10.5472563 303.543257,10.0583936 C303.999271,9.56953081 304.214277,8.90319923 304.13,8.24 C304.13,6.16 302.8,5.05 301.53,5.04 C300.861973,5.00716584 300.213966,5.27323137 299.761757,5.76602375 C299.309547,6.25881613 299.100016,6.92724772 299.19,7.59 C299.18,9.68 300.5,10.76 301.77,10.77 Z" id="Shape"></path>
            <path d="M326.42,17.47 C327.34,18.32 328.03,18.3 328.62,17.67 C329.21,17.04 329.15,16.2 328.34,15.45 C328.260466,15.3787177 328.177002,15.3119464 328.09,15.25 C327.765526,15.502709 327.467352,15.7874818 327.2,16.1 L326.2,17.22 L326.42,17.47 Z" id="Shape"></path>
            <polygon id="Shape" points="279.9 15.22 278 13.98 278.49 16.27"></polygon>
            <path d="M280.38,72.89 C279.864439,72.4629598 279.186082,72.2864661 278.52777,72.4080897 C277.869458,72.5297133 277.298944,72.9369368 276.97,73.52 C275.72,75.17 276.13,76.84 277.13,77.6 C277.639865,78.0293129 278.313835,78.2104691 278.97023,78.0946347 C279.626624,77.9788003 280.197878,77.5778987 280.53,77 C281.79,75.34 281.39,73.66 280.38,72.89 Z" id="Shape"></path>
            <path d="M268.06,27.62 C269.83,28.71 271.45,28.14 272.11,27.07 C272.489843,26.5215506 272.606713,25.8328171 272.429054,25.189766 C272.251394,24.5467149 271.797526,24.0156626 271.19,23.74 C269.42,22.65 267.78,23.21 267.11,24.29 C266.731945,24.8423729 266.619454,25.5343909 266.803086,26.1780686 C266.986718,26.8217464 267.447404,27.3502454 268.06,27.62 Z" id="Shape"></path>
            <path d="M265.44,30.98 C264.44,30.62 263.87,31.06 263.49,32.1 C263.457835,32.2018357 263.43113,32.3053164 263.41,32.41 C263.768861,32.6116639 264.147522,32.7758621 264.54,32.9 L265.97,33.42 C265.97,33.31 266.05,33.24 266.11,33.09 C266.53,31.9 266.25,31.27 265.44,30.98 Z" id="Shape"></path>
            <path d="M338.84,39.73 C336.77,39.9 335.84,41.32 335.91,42.58 C335.930794,43.2468173 336.246432,43.8700231 336.771686,44.2813441 C337.296941,44.692665 337.977645,44.8496826 338.63,44.71 C340.7,44.54 341.69,43.11 341.63,41.85 C341.610632,41.1695174 341.284217,40.5343911 340.742185,40.122525 C340.200154,39.7106588 339.500793,39.5663425 338.84,39.73 L338.84,39.73 Z" id="Shape"></path>
            <path d="M301.48,0 C276.494638,0 256.24,20.2546379 256.24,45.24 C256.24,70.2253621 276.494638,90.48 301.48,90.48 C326.465362,90.48 346.72,70.2253621 346.72,45.24 C346.686947,20.2683418 326.451658,0.0330531979 301.48,0 Z M338.33,31.38 C338.644288,31.3305669 338.954965,31.2604139 339.26,31.17 C339.421602,31.1289052 339.576502,31.064925 339.72,30.98 C339.72,30.98 339.83,31.18 339.8,31.2 C339.53,31.35 339.52,31.38 339.91,32.7 L340.68,35.33 C341.06,36.64 341.08,36.7 341.4,36.68 C341.4,36.68 341.5,36.92 341.4,36.91 C341.115247,36.9343379 340.833761,36.9879544 340.56,37.07 L339.99,37.25 L339.96,37.09 C340.33,36.88 340.52,36.49 340.24,35.51 L340,34.71 L336.14,35.84 C335.06,36.16 334.85,36.3 335.02,37.17 C335.02,37.17 334.8,37.3 334.78,37.17 C334.78,36.88 334.57,36.26 334.45,35.87 C334.317558,35.3681504 334.157311,34.8740542 333.97,34.39 C333.92,34.3 334.18,34.27 334.2,34.31 C334.52,35.09 334.71,35.16 335.86,34.83 L339.71,33.7 L339.46,32.85 C339.18,31.92 338.81,31.63 338.35,31.63 C338.35,31.57 338.3,31.39 338.34,31.39 L338.33,31.38 Z M341.96,42.02 C342.160762,43.8258299 340.881153,45.4608862 339.08,45.7 C337.167179,45.768178 335.552394,44.2912952 335.45,42.38 C335.243011,40.5794224 336.514057,38.9439509 338.31,38.7 C340.230471,38.6206047 341.857595,40.1006181 341.96,42.02 Z M337.83,27.35 L334.54,31.05 C333.89,31.79 333.54,32.16 333.89,33.05 C333.89,33.05 333.68,33.23 333.67,33.15 C333.516326,32.7548171 333.342772,32.3676562 333.15,31.99 C332.915277,31.4967325 332.654922,31.0160762 332.37,30.55 C332.31,30.49 332.57,30.41 332.59,30.44 C332.83,30.81 332.89,31.07 333.12,30.96 C333.459862,30.7262497 333.76605,30.4469794 334.03,30.13 L334.53,29.62 L333.61,27.79 L332.88,27.79 C332.465615,27.7853048 332.053332,27.8495129 331.66,27.98 C331.47,28.08 331.58,28.29 331.72,28.67 C331.72,28.73 331.51,28.85 331.5,28.77 C331.373997,28.4279517 331.227052,28.0939865 331.06,27.77 C330.912191,27.4515464 330.741754,27.1440926 330.55,26.85 C330.55,26.79 330.75,26.71 330.77,26.74 C331.1,27.28 331.55,27.43 332.77,27.38 L337.82,27.2 C337.85,27.19 337.96,27.3 337.87,27.35 L337.83,27.35 Z M331.65,18.45 C331.65,18.45 331.82,18.23 331.84,18.3 C332.05816,18.662164 332.295151,19.0126447 332.55,19.35 C332.856954,19.7934545 333.190919,20.2175901 333.55,20.62 C333.62,20.62 333.41,20.81 333.36,20.77 C333.07,20.47 332.9,20.29 332.7,20.44 C332.410869,20.6999002 332.17338,21.0120281 332,21.36 L330.32,24.36 L333.65,23.58 C334.040714,23.5317492 334.416151,23.3986399 334.75,23.19 C334.92,23.06 334.86,22.86 334.64,22.5 C334.64,22.5 334.81,22.28 334.83,22.35 C335.011262,22.6652809 335.211636,22.9691814 335.43,23.26 C335.624041,23.5557897 335.852283,23.8276668 336.11,24.07 C336.18,24.07 335.95,24.25 335.92,24.22 C335.51,23.78 335.08,23.68 333.92,23.96 L329.04,25.09 C329.04,25.09 328.9,25 328.93,24.92 L331.4,20.57 C331.96,19.55 332.09,19.09 331.69,18.45 L331.65,18.45 Z M326.78,14.05 C326.691858,13.9733336 326.59828,13.9031501 326.5,13.84 C326.45,13.84 326.56,13.61 326.63,13.65 C327.349262,14.1178382 328.019341,14.657252 328.63,15.26 C329.88,16.42 330.19,17.44 329.5,18.18 C328.965458,18.6913984 328.173505,18.8260302 327.5,18.52 C326.99,19.82 326.7,21.92 327.5,22.67 C327.5,22.67 327.39,22.9 327.34,22.85 C326.043426,21.6484973 325.752687,19.7088519 326.64,18.18 C326.44223,18.0472677 326.25194,17.9037159 326.07,17.75 C325.978511,17.6682938 325.891706,17.5814891 325.81,17.49 L325.09,18.27 C324.32,19.11 324.23,19.34 324.81,19.97 C324.81,19.97 324.68,20.21 324.64,20.14 C324.45,19.92 323.98,19.47 323.64,19.19 C323.257231,18.8365171 322.856712,18.5027517 322.44,18.19 C322.37,18.19 322.58,17.98 322.6,18.01 C323.27,18.5 323.48,18.49 324.3,17.61 L326.24,15.5 C327.13,14.67 327.15,14.36 326.82,14.09 L326.78,14.05 Z M320.99,10.05 C320.99,10.05 321.06,9.79 321.12,9.84 C321.68,10.27 322.62,10.84 323.43,11.4 C324.01,11.77 324.58,12.1 325.09,12.4 C324.929672,12.5532924 324.791659,12.7283339 324.68,12.92 C324.63,13.01 324.47,13.23 324.44,13.29 C324.41,13.35 324.22,13.19 324.23,13.17 C324.39,12.77 324.37,12.52 323.34,11.86 L322.64,11.42 C322.389334,11.7341852 322.165228,12.0686711 321.97,12.42 L321.35,13.42 L321.88,13.76 C322.78,14.33 322.88,14.35 323.16,14.06 C323.16,14.06 323.39,14.16 323.34,14.2 C323.17419,14.3876394 323.023707,14.5882835 322.89,14.8 L322.6,15.26 C322.524516,15.2304685 322.453765,15.1900394 322.39,15.14 C322.58,14.67 322.54,14.6 321.68,14.06 L321.14,13.72 L320.46,14.78 C319.81,15.78 319.8,15.94 320.17,16.17 L320.59,16.43 C321.82,17.21 321.96,17.06 322.41,16.61 C322.41,16.61 322.63,16.74 322.61,16.77 C322.376735,17.039218 322.12974,17.2962261 321.87,17.54 C321.74,17.68 321.66,17.68 321.52,17.54 C321.22,17.35 320.75,16.99 320.15,16.61 C319.33,16.09 318.37,15.47 317.74,15.13 C317.67,15.13 317.83,14.91 317.87,14.93 C318.75,15.35 318.87,15.29 319.54,14.27 L321.08,11.86 C321.78,10.79 321.78,10.61 321.03,10.01 L320.99,10.05 Z M314.55,11.51 C314.347849,11.9010843 314.313568,12.3575982 314.455046,12.7744865 C314.596524,13.1913748 314.901575,13.5327308 315.3,13.72 C315.549125,13.8784198 315.855521,13.9186609 316.137105,13.8299427 C316.418689,13.7412245 316.64668,13.532615 316.76,13.26 C317.4,11.81 314.84,10.69 315.54,9.1 C316.00799,8.18876562 317.116729,7.81622926 318.04,8.26 C318.447098,8.43329856 318.794678,8.72178978 319.04,9.09 C319.0198,9.50309033 318.907022,9.90635991 318.71,10.27 C318.71,10.27 318.46,10.2 318.48,10.17 C318.700131,9.54927807 318.409229,8.86327183 317.81,8.59 C317.590483,8.44693918 317.319519,8.40664555 317.067873,8.47964209 C316.816227,8.55263863 316.608887,8.73167697 316.5,8.97 C315.89,10.36 318.41,11.42 317.68,13.1 C317.474556,13.5881274 317.078485,13.9710457 316.5837,14.1598948 C316.088916,14.3487439 315.538434,14.3271051 315.06,14.1 C314.474296,13.8333327 314.007763,13.3596765 313.75,12.77 C313.908081,12.3233779 314.105523,11.8916813 314.34,11.48 C314.41,11.32 314.6,11.44 314.59,11.46 L314.55,11.51 Z M305.83,10.95 C306.67,11.05 306.83,10.81 307.09,9.76 L307.83,6.58 C307.92,6.16 307.28,5.41 306.83,5.27 C306.83,5.27 306.83,4.99 306.89,5.03 C307.41666,5.21373889 307.954396,5.36403795 308.5,5.48 L311.78,10.93 L312.45,8.06 C312.69,7 312.63,6.7 311.85,6.42 C311.79,6.42 311.85,6.15 311.92,6.19 C312.313325,6.33633051 312.718024,6.45004754 313.13,6.53 C313.492517,6.61537278 313.85985,6.67882112 314.23,6.72 C314.35,6.72 314.23,6.97 314.23,6.96 C313.35,6.82 313.23,7.17 312.96,8.16 L312.32,10.95 C312.181128,11.5140471 312.070986,12.0847819 311.99,12.66 L311.76,12.66 L308.24,6.91 L307.55,9.91 C307.33,10.91 307.33,11.26 308.17,11.53 C308.17,11.53 308.17,11.8 308.09,11.76 C307.763685,11.6432061 307.429518,11.5496393 307.09,11.48 C306.649268,11.3651391 306.201706,11.2782987 305.75,11.22 C305.76,11.09 305.84,10.89 305.88,10.9 L305.83,10.95 Z M301.7,4.72 C303.516793,4.66906538 305.038844,6.08430564 305.12,7.9 C305.022862,9.8152616 303.406516,11.2980249 301.49,11.23 C299.676923,11.281082 298.15643,9.87173648 298.07,8.06 C298.101099,7.11903407 298.507852,6.22974245 299.199366,5.59084338 C299.89088,4.9519443 300.809517,4.61669169 301.75,4.66 L301.7,4.72 Z M293.64,5.45 C294.340658,5.31409675 295.06346,5.34492718 295.75,5.54 C295.983831,5.9934859 296.161797,6.47365869 296.28,6.97 C296.28,6.97 296.06,7.07 296.04,7.03 C295.591033,6.07988737 294.521049,5.5935312 293.51,5.88 C292.833663,5.99898159 292.244256,6.41026125 291.899196,7.00399679 C291.554135,7.59773233 291.488566,8.31344997 291.72,8.96 C292.15,10.96 293.63,11.7 294.96,11.43 C295.926169,11.2583906 296.625122,10.4111743 296.61,9.43 C296.61,9.43 296.82,9.33 296.83,9.43 C296.921738,9.93111701 296.951961,10.4415587 296.92,10.95 C296.377562,11.4803143 295.673778,11.8146117 294.92,11.9 C294.057947,12.1621275 293.126645,12.0659457 292.336359,11.6331702 C291.546073,11.2003948 290.963439,10.4675158 290.72,9.6 C290.528724,8.644683 290.738477,7.65273972 291.300104,6.85662893 C291.86173,6.06051814 292.725865,5.53021704 293.69,5.39 L293.64,5.45 Z M281.35,10.07 C281.832712,9.8896935 282.303637,9.67928021 282.76,9.44 C283.13,9.26 283.69,8.95 283.93,8.79 C283.99,8.73 284.08,8.98 284.06,8.99 C283.31,9.43 283.35,9.71 283.85,10.72 L285.09,13.21 C285.5,14.04 285.72,14.31 286.14,14.1 L286.55,13.89 C287.88,13.23 287.84,12.99 287.71,12.46 C287.71,12.46 287.91,12.33 287.93,12.36 C288.033374,12.6887644 288.12015,13.0225192 288.19,13.36 C288.19,13.55 288.19,13.61 288.05,13.68 C287.73,13.84 287.25,14.02 286.61,14.34 C285.75,14.77 284.61,15.34 284.03,15.68 C283.95,15.74 283.89,15.48 283.91,15.47 C284.72,14.94 284.75,14.78 284.22,13.7 L282.96,11.09 C282.42,10.01 282.23,9.92 281.44,10.21 C281.45,10.26 281.28,10.09 281.4,10.02 L281.35,10.07 Z M277.43,12.62 L281.64,15.23 C282.48,15.74 282.9,16.01 283.64,15.53 C283.64,15.53 283.85,15.71 283.77,15.73 C283.425042,15.9534277 283.091304,16.1937191 282.77,16.45 C282.33,16.77 281.77,17.18 281.49,17.45 C281.49,17.52 281.32,17.28 281.35,17.26 C281.67,16.96 281.91,16.85 281.77,16.64 C281.470858,16.3473931 281.134662,16.0952467 280.77,15.89 L280.18,15.48 L278.53,16.71 L278.69,17.42 C278.757313,17.8295377 278.892503,18.2249698 279.09,18.59 C279.22,18.76 279.42,18.59 279.76,18.41 C279.76,18.41 279.97,18.58 279.89,18.61 C279.5751,18.7918791 279.271235,18.9922291 278.98,19.21 C278.689444,19.4113834 278.415257,19.6354141 278.16,19.88 C278.16,19.94 277.99,19.71 278.02,19.69 C278.5,19.27 278.56,18.8 278.31,17.69 L277.26,12.69 C277.32,12.61 277.41,12.53 277.48,12.57 L277.43,12.62 Z M269.58,20.07 C269.931591,19.755439 270.265439,19.4215915 270.58,19.07 C270.86,18.77 271.27,18.31 271.45,18.07 C271.45,18 271.66,18.2 271.63,18.23 C271.12,18.88 271.39,18.91 272.98,19.23 L273.98,19.4 L273.72,18.12 C273.41,16.56 273.33,16.59 272.72,17.12 C272.72,17.12 272.46,17 272.55,16.95 C272.902131,16.6360094 273.236009,16.3021305 273.55,15.95 C273.772523,15.7233665 273.97651,15.4792505 274.16,15.22 C274.16,15.14 274.37,15.35 274.35,15.37 C273.83,16.02 273.81,16.3 274.1,17.79 L274.43,19.46 L275.49,20.46 C276.49,21.38 276.56,21.32 277.2,20.74 C277.2,20.74 277.44,20.88 277.37,20.91 C277.13,21.11 276.69,21.56 276.37,21.86 C276.017037,22.2397482 275.683287,22.6369109 275.37,23.05 C275.37,23.13 275.17,22.91 275.2,22.89 C275.69,22.22 275.82,22.17 274.79,21.21 L273.79,20.32 L272.25,20.04 C270.61,19.74 270.31,19.77 269.7,20.3 C269.78,20.22 269.56,20.09 269.63,20.02 L269.58,20.07 Z M266.84,23.94 C267.747427,22.3649777 269.750245,21.8086393 271.34,22.69 C272.926613,23.7677253 273.350266,25.921667 272.29,27.52 C271.389885,29.097384 269.389372,29.6587752 267.8,28.78 C267.029323,28.2534531 266.500105,27.4416326 266.32934,26.5240082 C266.158576,25.6063839 266.36033,24.6585339 266.89,23.89 L266.84,23.94 Z M261.13,41.23 C261.2,40.55 261.23,39.89 261.23,39.31 C261.44019,39.3794186 261.658879,39.419792 261.88,39.43 L262.32,39.43 C262.38,39.43 262.32,39.67 262.32,39.67 C261.89,39.67 261.67,39.84 261.57,41.06 L261.49,41.88 C261.871705,41.9646097 262.259643,42.0181185 262.65,42.04 L263.81,42.14 L263.87,41.52 C263.97,40.46 263.95,40.38 263.55,40.24 L263.55,40.02 C263.792541,40.082243 264.040218,40.1224068 264.29,40.14 L264.83,40.14 C264.842068,40.2195449 264.842068,40.3004551 264.83,40.38 C264.33,40.38 264.29,40.5 264.2,41.5 L264.14,42.13 L265.39,42.24 C266.6,42.35 266.72,42.3 266.76,41.87 L266.76,41.37 C266.9,39.92 266.7,39.86 266.09,39.67 L266.09,39.42 C266.33,39.48 266.94,39.64 267.09,39.72 C267.24,39.8 267.3,39.85 267.29,40.01 C267.29,40.36 267.15,40.95 267.09,41.66 C267,42.66 266.89,43.77 266.88,44.48 C266.88,44.56 266.64,44.48 266.64,44.48 C266.64,43.48 266.5,43.41 265.3,43.3 L262.45,43.04 C261.25,42.93 261.09,43.04 260.9,43.95 L260.65,43.95 C260.96,43.26 261.1,42.15 261.18,41.18 L261.13,41.23 Z M261.5,53.5 C261.499383,52.9515111 261.462637,52.4036584 261.39,51.86 C261.345121,51.4368301 261.278365,51.0162673 261.19,50.6 C261.19,50.53 261.43,50.53 261.43,50.6 C261.58,51.35 261.85,51.42 262.98,51.3 L264.17,51.17 L263.8,47.8 L262.6,47.93 C261.42,48.06 261.25,48.22 261.25,48.93 C261.25,48.93 261,49.02 261,48.93 C261.01275,48.435324 260.985999,47.9404193 260.92,47.45 C260.92,47.04 260.77,46.31 260.7,46.02 C260.7,45.95 260.93,45.92 260.94,46.02 C261.12,47.02 261.37,47.02 262.5,46.9 L265.35,46.59 C266.49,46.47 266.7,46.39 266.68,45.4 C266.68,45.34 266.93,45.31 266.92,45.4 C266.92,45.7 266.98,46.4 267.03,46.84 C267.071935,47.3336009 267.142049,47.8244014 267.24,48.31 C267.24,48.37 267,48.37 267,48.31 C266.83,47.59 266.64,47.47 265.47,47.6 L264.19,47.74 L264.56,51.12 L265.84,50.99 C266.95,50.87 267.2,50.74 267.18,49.99 C267.18,49.99 267.44,49.9 267.42,49.99 C267.422833,50.4144985 267.449541,50.8385016 267.5,51.26 C267.548544,51.813555 267.62531,52.3642715 267.73,52.91 C267.73,52.98 267.49,52.97 267.49,52.91 C267.27,51.96 267.13,51.91 265.94,52.02 L263.09,52.32 C261.89,52.45 261.75,52.55 261.76,53.53 C261.8,53.48 261.53,53.54 261.55,53.46 L261.5,53.5 Z M268.76,65.85 L267.08,65.39 L267.54,63.71 L269.21,64.17 L268.76,65.85 Z M269.07,57.61 C268.72,56.85 268.52,56.78 267.39,57.15 L263.58,58.42 L263.86,59.26 C264.17,60.19 264.55,60.46 265.01,60.44 C265.01,60.44 265.09,60.66 265.01,60.66 C264.698548,60.7203826 264.391259,60.8005449 264.09,60.9 C263.932523,60.9527121 263.781553,61.023165 263.64,61.11 C263.64,61.11 263.52,60.92 263.56,60.9 C263.82,60.73 263.82,60.7 263.39,59.41 L262.52,56.8 C262.09,55.51 262.07,55.46 261.75,55.48 C261.75,55.48 261.65,55.25 261.7,55.26 C261.983241,55.2243922 262.261628,55.157311 262.53,55.06 C262.67,55.06 262.98,54.92 263.09,54.86 C263.2,54.8 263.18,55.07 263.16,55.08 C262.79,55.3 262.62,55.7 262.94,56.66 L263.2,57.45 L267.01,56.18 C268.08,55.82 268.29,55.68 268.08,54.81 C268.08,54.81 268.3,54.67 268.33,54.81 C268.429824,55.246398 268.55334,55.6770357 268.7,56.1 C268.853074,56.5962065 269.033347,57.0836105 269.24,57.56 C269.4,57.57 269.13,57.6 269.12,57.57 L269.07,57.61 Z M266.58,32.54 C266.539288,32.7736399 266.482487,33.0041887 266.41,33.23 C266.370623,33.3461997 266.323861,33.4597644 266.27,33.57 L267.27,33.93 C268.34,34.32 268.59,34.31 268.95,33.53 C268.95,33.53 269.22,33.53 269.17,33.62 C269.04,33.89 268.8,34.49 268.67,34.87 C268.54,35.25 268.27,35.98 268.18,36.38 C268.18,36.46 267.94,36.38 267.95,36.3 C268.15,35.5 268.06,35.3 266.95,34.89 L264.26,33.89 C263.26,33.52 262.93,33.63 262.78,34.05 C262.742554,34.1605234 262.715765,34.2743752 262.7,34.39 C262.7,34.45 262.46,34.39 262.47,34.39 C262.622081,33.5414248 262.859969,32.7104929 263.18,31.91 C263.76,30.3 264.58,29.63 265.54,29.97 C266.195486,30.260798 266.615835,30.9129291 266.61,31.63 C268,31.63 270.05,31.06 270.43,30.02 C270.43,30.02 270.68,30.02 270.65,30.1 C270.026341,31.7334589 268.363797,32.7260224 266.63,32.5 L266.58,32.54 Z M271.82,70.09 L270.11,69.86 L270.34,68.15 L272.05,68.37 L271.82,70.09 Z M276.71,77.81 C275.233867,76.7585706 274.865561,74.7217941 275.88,73.22 C277.109094,71.7448523 279.293621,71.5268446 280.79,72.73 C282.268867,73.7851538 282.633174,75.8288302 281.61,77.33 C280.375724,78.7945237 278.195281,78.9992183 276.71,77.79 L276.71,77.81 Z M288.63,77.64 C288.57,77.85 288.33,78.38 288.25,78.64 C288.25,78.64 288.04,78.59 288.04,78.55 C288.2,77.94 288.3,77.78 287.04,77.15 L286.2,76.74 C285.992494,77.0594558 285.808669,77.3936835 285.65,77.74 L285.13,78.83 L285.63,79.07 C286.57,79.52 286.72,79.44 287.02,79.07 C287.02,79.07 287.26,79.16 287.22,79.2 C287.05119,79.4345047 286.90709,79.6858422 286.79,79.95 C286.695153,80.1278783 286.611652,80.3115785 286.54,80.5 C286.54,80.58 286.29,80.5 286.31,80.42 C286.41,80.04 286.39,79.84 285.47,79.42 L284.96,79.18 L284.38,80.38 C283.86,81.46 283.87,81.65 284.65,82.11 C284.7,82.11 284.65,82.37 284.53,82.32 C284.28,82.16 283.66,81.85 283.3,81.67 C282.858258,81.4476243 282.404187,81.2506374 281.94,81.08 C281.86,81.08 282.01,80.84 282.04,80.86 C282.74,81.1 282.95,81 283.46,79.94 L284.7,77.36 C285.22,76.28 285.2,76.1 284.37,75.58 C284.37,75.58 284.42,75.31 284.49,75.36 C285.1,75.72 286.14,76.23 287.01,76.65 C287.63,76.95 288.21,77.18 288.52,77.33 C288.63,77.4 288.69,77.45 288.63,77.62 L288.63,77.64 Z M300.88,80.26 C299.88,80.21 299.78,80.43 299.65,81.56 L299.31,84.41 C299.18,85.54 299.24,85.78 300.19,85.99 L300.19,86.23 C299.89,86.15 299.19,86.04 298.78,85.99 C298.286434,85.9129116 297.789027,85.862837 297.29,85.84 C297.22,85.84 297.29,85.59 297.29,85.6 C298.03,85.6 298.18,85.47 298.29,84.29 L298.69,80.98 L295.88,85.64 C295.88,85.7 295.71,85.64 295.69,85.64 L294.01,80.47 L293.52,83.66 C293.37,84.66 293.4,85.02 294.24,85.22 L294.24,85.46 C293.910442,85.3782009 293.576594,85.3147699 293.24,85.27 C292.793158,85.1985047 292.342274,85.1550863 291.89,85.14 C291.82,85.14 291.89,84.9 291.89,84.9 C292.73,84.9 292.89,84.68 293.07,83.6 L293.58,80.31 C293.65,79.87 293.29,79.31 292.58,79.18 L292.58,78.95 C293.239977,79.0996716 293.907639,79.2131741 294.58,79.29 L296.25,84.29 L297.87,81.5 C298.212895,80.9744606 298.520248,80.4265706 298.79,79.86 C299.466576,79.9881145 300.151855,80.0649994 300.84,80.09 C300.96,80 300.9,80.25 300.88,80.25 L300.88,80.26 Z M309.18,79.35 C308.32,79.53 308.28,79.81 308.4,80.83 L308.67,83.2 C308.743536,83.8803447 308.525595,84.5600184 308.070139,85.0707393 C307.614682,85.5814602 306.964292,85.8754794 306.28,85.88 C305.598053,86.0223072 304.887636,85.8747966 304.318716,85.4727598 C303.749796,85.070723 303.373553,84.4503271 303.28,83.76 L303.03,81.54 C302.89,80.35 302.73,80.2 301.9,80.19 C301.9,80.19 301.81,79.94 301.9,79.96 C302.425539,79.9495883 302.949906,79.9061694 303.47,79.83 C303.87,79.83 304.47,79.7 304.8,79.62 C304.87,79.62 304.9,79.84 304.8,79.85 C303.95,80.03 303.91,80.28 304.03,81.42 L304.26,83.42 C304.261438,83.9728156 304.499862,84.4984761 304.914831,84.8637259 C305.329801,85.2289756 305.881474,85.398746 306.43,85.33 C306.97538,85.3318251 307.490793,85.0807124 307.82549,84.650108 C308.160187,84.2195036 308.276349,83.6580637 308.14,83.13 L307.88,80.89 C307.75,79.8 307.6,79.63 306.76,79.63 C306.7,79.63 306.67,79.39 306.76,79.41 C307.175141,79.415316 307.589978,79.3852068 308,79.32 C308.366579,79.2816526 308.730555,79.2215465 309.09,79.14 C309.23,79.09 309.21,79.34 309.18,79.34 L309.18,79.35 Z M313.84,84.24 C313.216752,84.4280468 312.545545,84.374493 311.96,84.09 C311.78267,83.6499341 311.645445,83.1947519 311.55,82.73 C311.55,82.67 311.76,82.63 311.76,82.65 C311.867828,83.0712482 312.140476,83.4314639 312.516617,83.6496259 C312.892758,83.8677879 313.340812,83.9255788 313.76,83.81 C314.053784,83.7644119 314.31205,83.5904688 314.464726,83.3353661 C314.617401,83.0802633 314.648652,82.7704548 314.55,82.49 C314.07,80.98 311.41,81.83 310.88,80.18 C310.624324,79.1847553 311.210642,78.1675828 312.2,77.89 C312.621116,77.7663841 313.068884,77.7663841 313.49,77.89 C313.753155,78.2096439 313.938061,78.5863044 314.03,78.99 C314.03,78.99 313.8,79.11 313.79,79.07 C313.547535,78.4548428 312.870799,78.1317556 312.24,78.33 C311.67,78.51 311.34,78.92 311.52,79.48 C311.98,80.93 314.58,80.05 315.14,81.79 C315.295374,82.2859516 315.245254,82.8235072 315.000875,83.2821877 C314.756496,83.7408682 314.338295,84.0823144 313.84,84.23 L313.84,84.24 Z M320.51,81.31 C320.23,81.4 319.63,81.68 319.29,81.85 C318.810316,82.0712114 318.342965,82.3182399 317.89,82.59 C317.81,82.66 317.75,82.39 317.77,82.38 C318.48,81.94 318.53,81.73 318.01,80.66 L316.75,78.09 C316.22,77.01 316.04,76.91 315.25,77.2 C315.25,77.2 315.07,77 315.17,76.97 C315.663139,76.7952932 316.144188,76.5881749 316.61,76.35 C316.95,76.18 317.53,75.87 317.78,75.71 C317.86,75.71 317.93,75.91 317.91,75.92 C317.15,76.36 317.19,76.64 317.68,77.65 L318.93,80.23 C319.43,81.23 319.61,81.42 320.43,81.11 C320.45,81.09 320.61,81.27 320.51,81.3 L320.51,81.31 Z M325.62,78.24 C324.933955,78.8282316 324.039355,79.1143389 323.139289,79.0333706 C322.239223,78.9524024 321.410048,78.5112274 320.84,77.81 C319.771065,76.1792141 320.217533,73.99152 321.84,72.91 C322.436239,72.5002609 323.122119,72.2396265 323.84,72.15 C324.238567,72.4664262 324.594818,72.8327597 324.9,73.24 C324.9,73.24 324.73,73.42 324.7,73.4 C323.899497,72.716152 322.720503,72.716152 321.92,73.4 C321.34757,73.777286 320.971321,74.3884341 320.892225,75.0694369 C320.813128,75.7504396 321.039284,76.4315554 321.51,76.93 C322.71,78.62 324.36,78.68 325.51,77.93 C326.33478,77.3840132 326.636569,76.3171253 326.22,75.42 C326.22,75.42 326.37,75.24 326.41,75.3 C326.69509,75.7232115 326.926842,76.1799995 327.1,76.66 C326.791383,77.3334437 326.271857,77.8880725 325.62,78.24 L325.62,78.24 Z M330.56,70.09 L330.34,68.37 L332.05,68.15 L332.28,69.86 L330.56,70.09 Z M301.49,76.57 C284.203487,76.57 270.19,62.5565127 270.19,45.27 C270.19,27.9834873 284.203487,13.97 301.49,13.97 C318.776513,13.97 332.79,27.9834873 332.79,45.27 C332.778958,62.5526071 318.76261,76.5555251 301.48,76.55 L301.49,76.57 Z M333.58,65.83 L333.12,64.15 L334.79,63.69 L335.26,65.37 L333.58,65.83 Z M340.58,55.83 C340.46,56.22 340.29,56.83 340.24,57.1 C340.24,57.18 340,57.1 340,57.04 C340.19,56.24 339.92,56.32 338.37,56.77 L337.37,57.05 L338.16,58.05 C339.16,59.32 339.16,59.26 339.49,58.55 C339.49,58.55 339.77,58.55 339.71,58.63 C339.535112,59.0475048 339.384854,59.4749049 339.26,59.91 C339.159619,60.2109851 339.079441,60.518335 339.02,60.83 C339.02,60.91 338.77,60.83 338.79,60.77 C338.98,59.97 338.88,59.69 337.97,58.48 L336.96,57.09 L335.57,56.65 C334.29,56.25 334.23,56.34 333.9,57.14 C333.9,57.14 333.63,57.14 333.68,57.06 C333.81,56.78 334.01,56.18 334.13,55.79 C334.300855,55.2881386 334.444399,54.7773903 334.56,54.26 C334.56,54.18 334.8,54.26 334.79,54.33 C334.64,55.15 334.54,55.25 335.88,55.67 L337.12,56.06 L338.63,55.65 C340.24,55.21 340.51,55.06 340.82,54.32 C340.82,54.32 341.1,54.32 341.05,54.4 C340.87551,54.8574622 340.72858,55.3249661 340.61,55.8 L340.58,55.83 Z M341.74,49.83 C341.54,51.53 340.89,52.37 339.89,52.25 C339.183445,52.1150564 338.625072,51.5724115 338.47,50.87 C337.13,51.22 335.25,52.21 335.12,53.3 L334.88,53.3 C335.087962,51.5445891 336.490611,50.1710749 338.25,50 C338.235392,49.7602223 338.235392,49.5197777 338.25,49.28 C338.261918,49.158792 338.281963,49.0385214 338.31,48.92 L337.25,48.8 C336.12,48.66 335.88,48.72 335.71,49.57 L335.47,49.57 C335.54,49.29 335.63,48.64 335.68,48.24 C335.74,47.69 335.82,47.07 335.82,46.66 C335.82,46.58 336.06,46.66 336.06,46.66 C336.06,47.49 336.19,47.66 337.38,47.8 L340.23,48.13 C341.33,48.26 341.59,48.13 341.64,47.65 C341.650207,47.5302171 341.650207,47.4097829 341.64,47.29 C341.64,47.24 341.87,47.2 341.87,47.29 C341.923645,48.1345296 341.890135,48.9823391 341.77,49.82 L341.74,49.83 Z" id="Shape"></path>
            <path d="M338.71,48.94 C338.71,49.05 338.71,49.13 338.65,49.29 C338.51,50.53 338.92,51.08 339.78,51.18 C340.84,51.31 341.28,50.75 341.42,49.65 L341.42,49.34 C341.026239,49.2213313 340.620332,49.14753 340.21,49.12 L338.71,48.94 Z" id="Shape"></path>
            <polygon id="Shape" points="336.38 27.63 334.04 27.71 334.83 29.28"></polygon>
        </g>
    </g>
</svg>